<svg width="31" height="31" viewBox="0 0 31 31" fill="none" xmlns="http://www.w3.org/2000/svg">
<path d="M30.5 15.5C30.5 15.5 24.875 5.1875 15.5 5.1875C6.125 5.1875 0.5 15.5 0.5 15.5C0.5 15.5 6.125 25.8125 15.5 25.8125C24.875 25.8125 30.5 15.5 30.5 15.5ZM2.69881 15.5C2.80555 15.3373 2.92726 15.1564 3.06364 14.9608C3.69155 14.0599 4.61808 12.8617 5.8102 11.6696C8.22693 9.25284 11.5262 7.0625 15.5 7.0625C19.4738 7.0625 22.7731 9.25284 25.1898 11.6696C26.3819 12.8617 27.3085 14.0599 27.9364 14.9608C28.0727 15.1564 28.1945 15.3373 28.3012 15.5C28.1945 15.6627 28.0727 15.8436 27.9364 16.0392C27.3085 16.9401 26.3819 18.1383 25.1898 19.3304C22.7731 21.7472 19.4738 23.9375 15.5 23.9375C11.5262 23.9375 8.22693 21.7472 5.8102 19.3304C4.61808 18.1383 3.69155 16.9401 3.06364 16.0392C2.92726 15.8436 2.80555 15.6627 2.69881 15.5Z" fill="currentColor"/>
<path d="M15.5 10.8125C12.9112 10.8125 10.8125 12.9112 10.8125 15.5C10.8125 18.0888 12.9112 20.1875 15.5 20.1875C18.0888 20.1875 20.1875 18.0888 20.1875 15.5C20.1875 12.9112 18.0888 10.8125 15.5 10.8125ZM8.9375 15.5C8.9375 11.8756 11.8756 8.9375 15.5 8.9375C19.1244 8.9375 22.0625 11.8756 22.0625 15.5C22.0625 19.1244 19.1244 22.0625 15.5 22.0625C11.8756 22.0625 8.9375 19.1244 8.9375 15.5Z" fill="currentColor"/>
</svg>
