<svg viewBox="0 0 15 15" fill="none" xmlns="http://www.w3.org/2000/svg">
<rect x="1.08" y="0.955" width="13.09" height="13.09" rx="6.545" fill="none" stroke="currentColor" stroke-width="0.91"/>
<path d="M9.51074 5.89355C9.34668 5.40479 9.0835 5.02368 8.72119 4.75024C8.3623 4.47339 7.9248 4.33496 7.40869 4.33496C6.96436 4.33496 6.56274 4.44946 6.20386 4.67847C5.84839 4.90747 5.56641 5.24414 5.35791 5.68848C5.15283 6.13281 5.05029 6.66602 5.05029 7.28809C5.05029 7.91016 5.15454 8.44336 5.36304 8.8877C5.57153 9.33203 5.85864 9.6687 6.22437 9.89771C6.59009 10.1267 7.00537 10.2412 7.47021 10.2412C7.88721 10.2412 8.25464 10.1541 8.57251 9.97974C8.8938 9.802 9.14331 9.55078 9.32104 9.22607C9.5022 8.89795 9.59619 8.51855 9.60303 8.08789H7.66504V7.27783H10.5054V8.07764C10.5054 8.68262 10.3755 9.21411 10.1157 9.67212C9.85596 10.1301 9.49536 10.4839 9.03394 10.7334C8.57593 10.9795 8.05469 11.1025 7.47021 11.1025C6.81396 11.1025 6.23462 10.9487 5.73218 10.6411C5.23315 10.3301 4.84521 9.88745 4.56836 9.31323C4.29492 8.7356 4.1582 8.06055 4.1582 7.28809C4.1582 6.51904 4.29492 5.84741 4.56836 5.27319C4.84521 4.69556 5.22974 4.25122 5.72192 3.94019C6.21411 3.62915 6.77637 3.47363 7.40869 3.47363C7.9248 3.47363 8.39819 3.57617 8.82886 3.78125C9.25952 3.98291 9.6167 4.2666 9.90039 4.63232C10.1841 4.99805 10.3721 5.41846 10.4644 5.89355H9.51074Z" fill="currentColor" stroke="none"/>
<path d="M2.375 1.08203L14.0417 12.7487" fill="none" stroke="currentColor" stroke-width="0.758333"/>
</svg>
