<svg width="29" height="29" viewBox="0 0 29 29" fill="none" xmlns="http://www.w3.org/2000/svg">
<rect x="1.41" y="1.41" width="26.18" height="26.18" rx="13.09" stroke="current" stroke-width="1.82"/>
<path d="M18.7715 11.7871C18.4434 10.8096 17.917 10.0474 17.1924 9.50049C16.4746 8.94678 15.5996 8.66992 14.5674 8.66992C13.6787 8.66992 12.8755 8.89893 12.1577 9.35693C11.4468 9.81494 10.8828 10.4883 10.4658 11.377C10.0557 12.2656 9.85059 13.332 9.85059 14.5762C9.85059 15.8203 10.0591 16.8867 10.4761 17.7754C10.8931 18.6641 11.4673 19.3374 12.1987 19.7954C12.9302 20.2534 13.7607 20.4824 14.6904 20.4824C15.5244 20.4824 16.2593 20.3081 16.895 19.9595C17.5376 19.604 18.0366 19.1016 18.3921 18.4521C18.7544 17.7959 18.9424 17.0371 18.9561 16.1758H15.0801V14.5557H20.7607V16.1553C20.7607 17.3652 20.501 18.4282 19.9814 19.3442C19.4619 20.2603 18.7407 20.9678 17.8179 21.4668C16.9019 21.959 15.8594 22.2051 14.6904 22.2051C13.3779 22.2051 12.2192 21.8975 11.2144 21.2822C10.2163 20.6602 9.44043 19.7749 8.88672 18.6265C8.33984 17.4712 8.06641 16.1211 8.06641 14.5762C8.06641 13.0381 8.33984 11.6948 8.88672 10.5464C9.44043 9.39111 10.2095 8.50244 11.1938 7.88037C12.1782 7.2583 13.3027 6.94727 14.5674 6.94727C15.5996 6.94727 16.5464 7.15234 17.4077 7.5625C18.269 7.96582 18.9834 8.5332 19.5508 9.26465C20.1182 9.99609 20.4941 10.8369 20.6787 11.7871H18.7715Z" fill="none"/>
<path d="M4 1.6665L27.3333 24.9998" stroke="current" stroke-width="1.51667"/>
</svg>
