<svg  viewBox="0 0 28 29" fill="none" xmlns="http://www.w3.org/2000/svg">
<rect x="0.91" y="1.41" width="26.18" height="26.18" rx="13.09" fill="none" stroke="currentColor" stroke-width="1.82"/>
<path d="M18.2715 11.7871C17.9434 10.8096 17.417 10.0474 16.6924 9.50049C15.9746 8.94678 15.0996 8.66992 14.0674 8.66992C13.1787 8.66992 12.3755 8.89893 11.6577 9.35693C10.9468 9.81494 10.3828 10.4883 9.96582 11.377C9.55566 12.2656 9.35059 13.332 9.35059 14.5762C9.35059 15.8203 9.55908 16.8867 9.97607 17.7754C10.3931 18.6641 10.9673 19.3374 11.6987 19.7954C12.4302 20.2534 13.2607 20.4824 14.1904 20.4824C15.0244 20.4824 15.7593 20.3081 16.395 19.9595C17.0376 19.604 17.5366 19.1016 17.8921 18.4521C18.2544 17.7959 18.4424 17.0371 18.4561 16.1758H14.5801V14.5557H20.2607V16.1553C20.2607 17.3652 20.001 18.4282 19.4814 19.3442C18.9619 20.2603 18.2407 20.9678 17.3179 21.4668C16.4019 21.959 15.3594 22.2051 14.1904 22.2051C12.8779 22.2051 11.7192 21.8975 10.7144 21.2822C9.71631 20.6602 8.94043 19.7749 8.38672 18.6265C7.83984 17.4712 7.56641 16.1211 7.56641 14.5762C7.56641 13.0381 7.83984 11.6948 8.38672 10.5464C8.94043 9.39111 9.70947 8.50244 10.6938 7.88037C11.6782 7.2583 12.8027 6.94727 14.0674 6.94727C15.0996 6.94727 16.0464 7.15234 16.9077 7.5625C17.769 7.96582 18.4834 8.5332 19.0508 9.26465C19.6182 9.99609 19.9941 10.8369 20.1787 11.7871H18.2715Z" fill="currentColor"/>
</svg>
