<svg width="28" height="29" viewBox="0 0 28 29" fill="none" xmlns="http://www.w3.org/2000/svg">
<rect x="0.91" y="1.41" width="26.18" height="26.18" fill='none' rx="13.09" stroke="currentColor" stroke-width="1.82"/>
<path d="M9.25244 7.15234H14.2974C15.4253 7.15234 16.3687 7.34717 17.1274 7.73682C17.8862 8.11963 18.4468 8.65625 18.8091 9.34668C19.1782 10.0303 19.3628 10.8232 19.3628 11.7256C19.3628 12.7305 19.1304 13.5952 18.6655 14.3198C18.2075 15.0444 17.5171 15.5674 16.5942 15.8887L19.937 22H17.7837L14.6768 16.2271L14.3179 16.2373H11.0981V22H9.25244V7.15234ZM14.2358 14.5557C15.3774 14.5557 16.2114 14.313 16.7378 13.8276C17.271 13.3423 17.5376 12.6416 17.5376 11.7256C17.5376 10.7959 17.271 10.0747 16.7378 9.56201C16.2046 9.04932 15.3638 8.79297 14.2153 8.79297H11.0981V14.5557H14.2358Z" fill="currentColor"/>
<path d="M3.5 1.66602L26.8333 24.9993" fill='none' stroke="currentColor" stroke-width="1.51667"/>
</svg>
