<svg width="29" height="29" viewBox="0 0 29 29" fill="none" xmlns="http://www.w3.org/2000/svg">
<rect x="1.41" y="1.41" width="26.18" height="26.18" rx="13.09" stroke="current" stroke-width="1.82"/>
<path d="M9.75244 7.15234H14.7974C15.9253 7.15234 16.8687 7.34717 17.6274 7.73682C18.3862 8.11963 18.9468 8.65625 19.3091 9.34668C19.6782 10.0303 19.8628 10.8232 19.8628 11.7256C19.8628 12.7305 19.6304 13.5952 19.1655 14.3198C18.7075 15.0444 18.0171 15.5674 17.0942 15.8887L20.437 22H18.2837L15.1768 16.2271L14.8179 16.2373H11.5981V22H9.75244V7.15234ZM14.7358 14.5557C15.8774 14.5557 16.7114 14.313 17.2378 13.8276C17.771 13.3423 18.0376 12.6416 18.0376 11.7256C18.0376 10.7959 17.771 10.0747 17.2378 9.56201C16.7046 9.04932 15.8638 8.79297 14.7153 8.79297H11.5981V14.5557H14.7358Z" fill="current"/>
<path d="M4 1.6665L27.3333 24.9998" stroke="current" stroke-width="1.51667"/>
</svg>
