<svg viewBox="0 0 28 29" fill="none" xmlns="http://www.w3.org/2000/svg">
<rect x="0.91" y="1.41" width="26.18" fill="none" height="26.18" rx="13.09" stroke="currentColor" stroke-width="1.82"/>
<path d="M8.64062 7.15234H13.8496C14.8545 7.15234 15.6987 7.32324 16.3823 7.66504C17.0659 8.00684 17.5752 8.4751 17.9102 9.06982C18.252 9.66455 18.4229 10.3379 18.4229 11.0898C18.4229 11.9785 18.2007 12.6724 17.7563 13.1714C17.312 13.6636 16.7275 14.0088 16.0029 14.207V14.3506C16.4814 14.3779 16.9531 14.542 17.418 14.8428C17.8828 15.1436 18.2656 15.5708 18.5664 16.1245C18.8672 16.6714 19.0176 17.3174 19.0176 18.0625C19.0176 18.835 18.8398 19.5151 18.4844 20.103C18.1357 20.6909 17.5889 21.1558 16.8438 21.4976C16.0986 21.8325 15.1621 22 14.0342 22H8.64062V7.15234ZM14.0137 20.3594C15.1143 20.3594 15.9243 20.1475 16.4438 19.7236C16.9702 19.2998 17.2334 18.7393 17.2334 18.042C17.2334 17.5361 17.1035 17.0713 16.8438 16.6475C16.5908 16.2168 16.2251 15.8784 15.7466 15.6323C15.2749 15.3794 14.7314 15.2529 14.1162 15.2529H10.4863V20.3594H14.0137ZM13.7881 13.6533C14.3213 13.6533 14.8066 13.5508 15.2441 13.3457C15.6816 13.1338 16.0269 12.8364 16.2798 12.4536C16.5327 12.064 16.6592 11.6162 16.6592 11.1104C16.6592 10.4268 16.4233 9.86963 15.9517 9.43896C15.48 9.0083 14.7793 8.79297 13.8496 8.79297H10.4863V13.6533H13.7881Z" fill="currentColor"/>
<path d="M3.5 1.66602L26.8333 24.9993" fill="none" stroke="currentColor" stroke-width="1.51667"/>
</svg>
