<svg width="42" height="30" viewBox="0 0 42 30" fill="none" xmlns="http://www.w3.org/2000/svg">
<g clip-path="url(#clip0_85_784)" filter="url(#filter0_d_85_784)">
<path d="M3 3H39V27H3V3Z" fill="white"/>
<path fill-rule="evenodd" clip-rule="evenodd" d="M8.49609 10.27L11.8243 5.27771L12.7001 5.86161L9.37194 10.8539L8.49609 10.27ZM9.74417 11.1021L13.0724 6.10976L13.9482 6.69366L10.62 11.686L9.74417 11.1021ZM10.9922 11.9341L14.3204 6.94181L15.1963 7.52571L11.8681 12.518L10.9922 11.9341ZM26.8012 22.4734L30.1294 17.4811L31.0053 18.065L27.6771 23.0573L26.8012 22.4734ZM28.0493 23.3055L31.3775 18.3131L32.2533 18.897L28.9251 23.8893L28.0493 23.3055ZM33.5014 19.7291L30.1732 24.7214L29.2974 24.1375L32.6256 19.1452L33.5014 19.7291Z" fill="black"/>
<path fill-rule="evenodd" clip-rule="evenodd" d="M31.9884 22.8526L27.8281 20.0791L28.3147 19.3492L32.475 22.1227L31.9884 22.8526Z" fill="white"/>
<path d="M25.9915 18.3277C27.8296 15.5705 27.0846 11.8453 24.3274 10.0072C21.5702 8.16905 17.845 8.9141 16.0069 11.6713C14.1688 14.4284 14.9138 18.1537 17.671 19.9918C20.4282 21.8299 24.1534 21.0848 25.9915 18.3277Z" fill="#CA163A"/>
<path d="M16.0069 11.6713C15.0883 13.0491 15.4611 14.9129 16.839 15.8315C18.2168 16.7501 20.0806 16.3773 20.9992 14.9995C21.9178 13.6216 23.7816 13.2488 25.1595 14.1674C26.5373 15.086 26.9101 16.9498 25.9915 18.3277C24.1544 21.0834 20.4268 21.8289 17.671 19.9918C14.9153 18.1546 14.1697 14.427 16.0069 11.6713Z" fill="#0E4896"/>
<path fill-rule="evenodd" clip-rule="evenodd" d="M30.1732 5.27734L33.5014 10.2697L32.6255 10.8536L29.2973 5.86124L30.1732 5.27734ZM28.9251 6.10942L32.2533 11.1017L31.3775 11.6856L28.0493 6.69332L28.9251 6.10942ZM27.677 6.94146L31.0052 11.9337L30.1294 12.5176L26.8012 7.52536L27.677 6.94146ZM11.868 17.4807L15.1962 22.4731L14.3204 23.057L10.9922 18.0646L11.868 17.4807ZM10.6199 18.3128L13.9481 23.3051L13.0723 23.889L9.74409 18.8967L10.6199 18.3128ZM9.37194 19.1449L12.7001 24.1372L11.8243 24.7211L8.49609 19.7288L9.37194 19.1449Z" fill="black"/>
<path d="M11.2241 21.5159L12.4722 20.6839L11.2241 21.5159ZM28.0714 10.2844L29.5292 9.31252L28.0714 10.2844ZM30.7773 8.48048L32.0254 7.64844L30.7773 8.48048Z" fill="black"/>
<path fill-rule="evenodd" clip-rule="evenodd" d="M32.2688 8.01308L31.0207 8.84512L30.5341 8.11524L31.7822 7.2832L32.2688 8.01308ZM29.7726 9.67715L28.3148 10.649L27.8283 9.91912L29.286 8.94728L29.7726 9.67715ZM12.7156 21.0486L11.4675 21.8806L10.981 21.1507L12.229 20.3187L12.7156 21.0486Z" fill="white"/>
</g>
<defs>
<filter id="filter0_d_85_784" x="0.658202" y="0.658202" width="40.6836" height="28.6836" filterUnits="userSpaceOnUse" color-interpolation-filters="sRGB">
<feFlood flood-opacity="0" result="BackgroundImageFix"/>
<feColorMatrix in="SourceAlpha" type="matrix" values="0 0 0 0 0 0 0 0 0 0 0 0 0 0 0 0 0 0 127 0" result="hardAlpha"/>
<feOffset/>
<feGaussianBlur stdDeviation="1.1709"/>
<feComposite in2="hardAlpha" operator="out"/>
<feColorMatrix type="matrix" values="0 0 0 0 0 0 0 0 0 0 0 0 0 0 0 0 0 0 0.25 0"/>
<feBlend mode="normal" in2="BackgroundImageFix" result="effect1_dropShadow_85_784"/>
<feBlend mode="normal" in="SourceGraphic" in2="effect1_dropShadow_85_784" result="shape"/>
</filter>
<clipPath id="clip0_85_784">
<rect width="36" height="24" fill="white" transform="translate(3 3)"/>
</clipPath>
</defs>
</svg>
