<svg width="24" height="17" viewBox="0 0 24 17" fill="none" xmlns="http://www.w3.org/2000/svg">
<g clip-path="url(#clip0_306_2477)" filter="url(#filter0_d_306_2477)">
<path d="M1.90625 2H21.9063V15.3333H1.90625V2Z" fill="white"/>
<path fill-rule="evenodd" clip-rule="evenodd" d="M4.95898 6.03906L6.80798 3.26556L7.29456 3.58994L5.44556 6.36345L4.95898 6.03906ZM5.65236 6.50131L7.50136 3.72781L7.98794 4.05219L6.13894 6.8257L5.65236 6.50131ZM6.34574 6.96356L8.19473 4.19006L8.68131 4.51444L6.83232 7.28795L6.34574 6.96356ZM15.1285 12.8187L16.9775 10.0452L17.4641 10.3696L15.6151 13.1431L15.1285 12.8187ZM15.8219 13.281L17.6709 10.5075L18.1574 10.8319L16.3085 13.6054L15.8219 13.281ZM18.8508 11.2941L17.0018 14.0676L16.5152 13.7432L18.3642 10.9697L18.8508 11.2941Z" fill="black"/>
<path fill-rule="evenodd" clip-rule="evenodd" d="M18.0105 13.0291L15.6992 11.4883L15.9695 11.0828L18.2808 12.6236L18.0105 13.0291Z" fill="white"/>
<path d="M14.6792 10.5143C15.7004 8.98257 15.2865 6.91301 13.7547 5.89183C12.2229 4.87066 10.1534 5.28458 9.1322 6.81634C8.11103 8.3481 8.52494 10.4177 10.0567 11.4388C11.5885 12.46 13.658 12.0461 14.6792 10.5143Z" fill="#CA163A"/>
<path d="M9.1322 6.81634C8.62188 7.58183 8.82897 8.61727 9.59445 9.12759C10.3599 9.63791 11.3954 9.43083 11.9057 8.66534C12.416 7.89985 13.4515 7.69276 14.217 8.20309C14.9824 8.71341 15.1895 9.74885 14.6792 10.5143C13.6586 12.0453 11.5877 12.4595 10.0567 11.4388C8.52573 10.4182 8.11155 8.34731 9.1322 6.81634Z" fill="#0E4896"/>
<path fill-rule="evenodd" clip-rule="evenodd" d="M17.0018 3.26562L18.8508 6.03914L18.3642 6.36352L16.5152 3.59001L17.0018 3.26562ZM16.3084 3.72789L18.1575 6.50138L17.6709 6.82577L15.8219 4.05228L16.3084 3.72789ZM15.6151 4.19014L17.4641 6.96362L16.9775 7.28801L15.1285 4.51452L15.6151 4.19014ZM6.83228 10.0453L8.68128 12.8188L8.1947 13.1432L6.3457 10.3697L6.83228 10.0453ZM6.1389 10.5076L7.9879 13.281L7.50132 13.6054L5.65232 10.8319L6.1389 10.5076ZM5.44556 10.9698L7.29456 13.7433L6.80798 14.0677L4.95898 11.2942L5.44556 10.9698Z" fill="black"/>
<path d="M6.47461 12.2862L7.16799 11.824L6.47461 12.2862ZM15.8342 6.04643L16.6441 5.50652L15.8342 6.04643ZM17.3375 5.04428L18.0309 4.58203L17.3375 5.04428Z" fill="black"/>
<path fill-rule="evenodd" clip-rule="evenodd" d="M18.1664 4.78439L17.473 5.24664L17.2027 4.84115L17.8961 4.37891L18.1664 4.78439ZM16.7796 5.70888L15.9698 6.24879L15.6995 5.84331L16.5093 5.3034L16.7796 5.70888ZM7.30353 12.0263L6.61015 12.4886L6.33984 12.0831L7.03322 11.6208L7.30353 12.0263Z" fill="white"/>
</g>
<defs>
<filter id="filter0_d_306_2477" x="0.605251" y="0.699001" width="22.602" height="15.936" filterUnits="userSpaceOnUse" color-interpolation-filters="sRGB">
<feFlood flood-opacity="0" result="BackgroundImageFix"/>
<feColorMatrix in="SourceAlpha" type="matrix" values="0 0 0 0 0 0 0 0 0 0 0 0 0 0 0 0 0 0 127 0" result="hardAlpha"/>
<feOffset/>
<feGaussianBlur stdDeviation="0.6505"/>
<feComposite in2="hardAlpha" operator="out"/>
<feColorMatrix type="matrix" values="0 0 0 0 0 0 0 0 0 0 0 0 0 0 0 0 0 0 0.25 0"/>
<feBlend mode="normal" in2="BackgroundImageFix" result="effect1_dropShadow_306_2477"/>
<feBlend mode="normal" in="SourceGraphic" in2="effect1_dropShadow_306_2477" result="shape"/>
</filter>
<clipPath id="clip0_306_2477">
<rect width="20" height="13.3333" fill="white" transform="translate(1.90625 2)"/>
</clipPath>
</defs>
</svg>
