<svg width="39" height="40" viewBox="0 0 39 40" fill="none" xmlns="http://www.w3.org/2000/svg">
<path d="M0.5 17.805L2.01586 14.291L18.8281 6.36719L17.519 9.67451L0.5 17.805Z" fill="#CE78A9"/>
<path d="M3.18676 24.2117L1.05078 19.3196L15.1069 12.2227L13.7289 15.5989L4.49591 20.2843L6.97641 26.0032L3.18676 24.2117Z" fill="#D55D00"/>
<path d="M22.2758 0.740983L25.7724 2.29672L33.5044 19.198L30.2122 17.8513L22.2758 0.740983Z" fill="#E59F01"/>
<path d="M15.837 3.35493L20.7531 1.27474L27.6897 15.4107L24.3294 13.9943L19.7493 4.70867L14.0026 7.12395L15.837 3.35493Z" fill="black"/>
<path d="M17.0364 39.2464L13.5429 37.6838L5.84421 20.7673L9.13377 22.1205L17.0364 39.2464Z" fill="#0072B1"/>
<path d="M23.4774 36.6453L18.5573 38.7158L11.6485 24.5662L15.0061 25.9892L19.5678 35.2839L25.3193 32.8799L23.4774 36.6453Z" fill="#F0E442"/>
<path d="M38.8887 22.215L37.4071 25.7437L20.6728 33.8306L21.9497 30.5107L38.8887 22.215Z" fill="#009F73"/>
<path d="M36.1401 15.8331L38.3235 20.7041L24.3371 27.9375L25.6823 24.548L34.8692 19.7731L32.3332 14.0785L36.1401 15.8331Z" fill="#56B4E8"/>
</svg>
