<svg width="91" height="91" viewBox="0 0 91 91" fill="none" xmlns="http://www.w3.org/2000/svg">
<path d="M0 40.2975L3.56053 32.0435L43.05 13.4316L39.975 21.2001L0 40.2975Z" fill="#CE78A9"/>
<path d="M6.31399 55.35L1.29688 43.8592L34.3127 27.1895L31.0759 35.1197L9.38899 46.125L15.2153 59.5579L6.31399 55.35Z" fill="#D55D00"/>
<path d="M51.1437 0.21978L59.3567 3.87397L77.5181 43.5727L69.7852 40.4095L51.1437 0.21978Z" fill="#E59F01"/>
<path d="M36.0205 6.36246L47.5677 1.47639L63.8608 34.6797L55.9678 31.3529L45.21 9.5422L31.7116 15.2153L36.0205 6.36246Z" fill="white"/>
<path d="M38.84 90.671L30.6343 87.0007L12.5511 47.2663L20.2778 50.4447L38.84 90.671Z" fill="#0072B1"/>
<path d="M53.975 84.5603L42.4183 89.4236L26.1906 56.1883L34.077 59.5307L44.7919 81.3625L58.3013 75.7159L53.975 84.5603Z" fill="#F0E442"/>
<path d="M90.1703 50.6648L86.6902 58.9529L47.3836 77.948L50.3829 70.1501L90.1703 50.6648Z" fill="#009F73"/>
<path d="M83.7092 35.6767L88.8379 47.1181L55.9857 64.1082L59.1453 56.1469L80.7241 44.9312L74.7674 31.5556L83.7092 35.6767Z" fill="#56B4E8"/>
</svg>
