<svg width="77" height="78" viewBox="0 0 77 78" fill="none" xmlns="http://www.w3.org/2000/svg">
<path d="M0 34.6052L3.03172 27.5771L36.6562 11.7295L34.0379 18.3441L0 34.6052Z" fill="#CE78A9"/>
<path d="M5.3745 47.4212L1.10254 37.6371L29.2148 23.4431L26.4587 30.1956L7.9928 39.5663L12.9538 51.0042L5.3745 47.4212Z" fill="#D55D00"/>
<path d="M43.5491 0.478061L50.5423 3.58953L66.0064 37.3921L59.4219 34.6987L43.5491 0.478061Z" fill="#E59F01"/>
<path d="M30.6731 5.70644L40.5052 1.54606L54.3785 29.818L47.6578 26.9852L38.4977 8.41393L27.0042 13.2445L30.6731 5.70644Z" fill="black"/>
<path d="M33.0714 77.4894L26.0844 74.3641L10.6869 40.5311L17.2661 43.2375L33.0714 77.4894Z" fill="#0072B1"/>
<path d="M45.9578 72.2865L36.1175 76.4275L22.3 48.1283L29.0151 50.9742L38.1385 69.5636L49.6416 64.7557L45.9578 72.2865Z" fill="#F0E442"/>
<path d="M76.7775 43.4237L73.8143 50.481L40.3455 66.6549L42.8994 60.0151L76.7775 43.4237Z" fill="#009F73"/>
<path d="M71.2787 30.661L75.6456 40.4032L47.6727 54.8699L50.363 48.0909L68.7369 38.541L63.6649 27.152L71.2787 30.661Z" fill="#56B4E8"/>
</svg>
