<svg width="28" height="21" viewBox="0 0 28 21" fill="none" xmlns="http://www.w3.org/2000/svg">
<g clip-path="url(#clip0_306_3300)" filter="url(#filter0_d_306_3300)">
<path d="M3.99609 4.16602H23.9961V17.4993H3.99609V4.16602Z" fill="white"/>
<path d="M3.99609 4.16602H23.9961V5.19136H3.99609V4.16602ZM3.99609 6.2167H23.9961V7.24204H3.99609V6.2167ZM3.99609 8.26738H23.9961V9.29272H3.99609V8.26738ZM3.99609 10.3181H23.9961V11.3434H3.99609V10.3181ZM3.99609 12.3726H23.9961V13.398H3.99609V12.3726ZM3.99609 14.4233H23.9961V15.4487H3.99609V14.4233ZM3.99609 16.474H23.9961V17.4993H3.99609V16.474Z" fill="#D80027"/>
<path d="M3.99609 4.16602H13.9961V11.3434H3.99609V4.16602Z" fill="#2E52B2"/>
<path d="M5.85968 9.58115L5.70374 9.08212L5.5322 9.58115H5.01758L5.43473 9.88134L5.27879 10.3804L5.70374 10.0724L6.11699 10.3804L5.95715 9.88134L6.3821 9.58115H5.85968ZM8.05462 9.58115L7.89477 9.08212L7.73103 9.58115H7.21641L7.63356 9.88134L7.47762 10.3804L7.89477 10.0724L8.31582 10.3804L8.15988 9.88134L8.57703 9.58115H8.05462ZM10.2573 9.58115L10.0897 9.08212L9.93376 9.58115H9.40744L9.83629 9.88134L9.67255 10.3804L10.0897 10.0724L10.5186 10.3804L10.3548 9.88134L10.772 9.58115H10.2573ZM12.4484 9.58115L12.2924 9.08212L12.1287 9.58115H11.6102L12.0312 9.88134L11.8753 10.3804L12.2924 10.0724L12.7135 10.3804L12.5458 9.88134L12.9747 9.58115H12.4484ZM7.89477 7.10162L7.73103 7.60064H7.21641L7.63356 7.90863L7.47762 8.39986L7.89477 8.09577L8.31582 8.39986L8.15988 7.90863L8.57703 7.60064H8.05462L7.89477 7.10162ZM5.70374 7.10162L5.5322 7.60064H5.01758L5.43473 7.90863L5.27879 8.39986L5.70374 8.09577L6.11699 8.39986L5.95715 7.90863L6.3821 7.60064H5.85968L5.70374 7.10162ZM10.0897 7.10162L9.93376 7.60064H9.40744L9.83629 7.90863L9.67255 8.39986L10.0897 8.09577L10.5186 8.39986L10.3548 7.90863L10.772 7.60064H10.2573L10.0897 7.10162ZM12.2924 7.10162L12.1287 7.60064H11.6102L12.0312 7.90863L11.8753 8.39986L12.2924 8.09577L12.7135 8.39986L12.5458 7.90863L12.9747 7.60064H12.4484L12.2924 7.10162ZM5.70374 5.12891L5.5322 5.62013H5.01758L5.43473 5.92813L5.27879 6.42325L5.70374 6.11526L6.11699 6.42325L5.95715 5.92813L6.3821 5.62013H5.85968L5.70374 5.12891ZM7.89477 5.12891L7.73103 5.62013H7.21641L7.63356 5.92813L7.47762 6.42325L7.89477 6.11526L8.31582 6.42325L8.15988 5.92813L8.57703 5.62013H8.05462L7.89477 5.12891ZM10.0897 5.12891L9.93376 5.62013H9.40744L9.83629 5.92813L9.67255 6.42325L10.0897 6.11526L10.5186 6.42325L10.3548 5.92813L10.772 5.62013H10.2573L10.0897 5.12891ZM12.2924 5.12891L12.1287 5.62013H11.6102L12.0312 5.92813L11.8753 6.42325L12.2924 6.11526L12.7135 6.42325L12.5458 5.92813L12.9747 5.62013H12.4484L12.2924 5.12891Z" fill="white"/>
</g>
<defs>
<filter id="filter0_d_306_3300" x="0.509482" y="0.679404" width="26.9732" height="20.3072" filterUnits="userSpaceOnUse" color-interpolation-filters="sRGB">
<feFlood flood-opacity="0" result="BackgroundImageFix"/>
<feColorMatrix in="SourceAlpha" type="matrix" values="0 0 0 0 0 0 0 0 0 0 0 0 0 0 0 0 0 0 127 0" result="hardAlpha"/>
<feOffset/>
<feGaussianBlur stdDeviation="1.74331"/>
<feComposite in2="hardAlpha" operator="out"/>
<feColorMatrix type="matrix" values="0 0 0 0 0 0 0 0 0 0 0 0 0 0 0 0 0 0 0.25 0"/>
<feBlend mode="normal" in2="BackgroundImageFix" result="effect1_dropShadow_306_3300"/>
<feBlend mode="normal" in="SourceGraphic" in2="effect1_dropShadow_306_3300" result="shape"/>
</filter>
<clipPath id="clip0_306_3300">
<rect width="20" height="13.3333" fill="white" transform="translate(3.99609 4.16602)"/>
</clipPath>
</defs>
</svg>
