<svg width="50" height="38" viewBox="0 0 50 38" fill="none" xmlns="http://www.w3.org/2000/svg">
<g clip-path="url(#clip0_85_779)" filter="url(#filter0_d_85_779)">
<path d="M7 7H42.7847V30.8565H7V7Z" fill="white"/>
<path d="M7 7H42.7847V8.83458H7V7ZM7 10.6692H42.7847V12.5037H7V10.6692ZM7 14.3383H42.7847V16.1729H7V14.3383ZM7 18.0075H42.7847V19.842H7V18.0075ZM7 21.6836H42.7847V23.5182H7V21.6836ZM7 25.3527H42.7847V27.1873H7V25.3527ZM7 29.0219H42.7847V30.8565H7V29.0219Z" fill="#D80027"/>
<path d="M7 7H24.8923V19.842H7V7Z" fill="#2E52B2"/>
<path d="M10.3344 16.6892L10.0553 15.7964L9.74841 16.6892H8.82764L9.57402 17.2264L9.295 18.1192L10.0553 17.5682L10.7947 18.1192L10.5087 17.2264L11.2691 16.6892H10.3344ZM14.2616 16.6892L13.9756 15.7964L13.6826 16.6892H12.7619L13.5082 17.2264L13.2292 18.1192L13.9756 17.5682L14.729 18.1192L14.4499 17.2264L15.1963 16.6892H14.2616ZM18.2028 16.6892L17.9029 15.7964L17.6238 16.6892H16.6821L17.4494 17.2264L17.1565 18.1192L17.9029 17.5682L18.6702 18.1192L18.3772 17.2264L19.1236 16.6892H18.2028ZM22.1231 16.6892L21.8441 15.7964L21.5511 16.6892H20.6233L21.3767 17.2264L21.0977 18.1192L21.8441 17.5682L22.5974 18.1192L22.2975 17.2264L23.0648 16.6892H22.1231ZM13.9756 12.2528L13.6826 13.1457H12.7619L13.5082 13.6967L13.2292 14.5757L13.9756 14.0316L14.729 14.5757L14.4499 13.6967L15.1963 13.1457H14.2616L13.9756 12.2528ZM10.0553 12.2528L9.74841 13.1457H8.82764L9.57402 13.6967L9.295 14.5757L10.0553 14.0316L10.7947 14.5757L10.5087 13.6967L11.2691 13.1457H10.3344L10.0553 12.2528ZM17.9029 12.2528L17.6238 13.1457H16.6821L17.4494 13.6967L17.1565 14.5757L17.9029 14.0316L18.6702 14.5757L18.3772 13.6967L19.1236 13.1457H18.2028L17.9029 12.2528ZM21.8441 12.2528L21.5511 13.1457H20.6233L21.3767 13.6967L21.0977 14.5757L21.8441 14.0316L22.5974 14.5757L22.2975 13.6967L23.0648 13.1457H22.1231L21.8441 12.2528ZM10.0553 8.72314L9.74841 9.60207H8.82764L9.57402 10.1531L9.295 11.039L10.0553 10.488L10.7947 11.039L10.5087 10.1531L11.2691 9.60207H10.3344L10.0553 8.72314ZM13.9756 8.72314L13.6826 9.60207H12.7619L13.5082 10.1531L13.2292 11.039L13.9756 10.488L14.729 11.039L14.4499 10.1531L15.1963 9.60207H14.2616L13.9756 8.72314ZM17.9029 8.72314L17.6238 9.60207H16.6821L17.4494 10.1531L17.1565 11.039L17.9029 10.488L18.6702 11.039L18.3772 10.1531L19.1236 9.60207H18.2028L17.9029 8.72314ZM21.8441 8.72314L21.5511 9.60207H20.6233L21.3767 10.1531L21.0977 11.039L21.8441 10.488L22.5974 11.039L22.2975 10.1531L23.0648 9.60207H22.1231L21.8441 8.72314Z" fill="white"/>
</g>
<defs>
<filter id="filter0_d_85_779" x="0.761634" y="0.761634" width="48.2614" height="36.3332" filterUnits="userSpaceOnUse" color-interpolation-filters="sRGB">
<feFlood flood-opacity="0" result="BackgroundImageFix"/>
<feColorMatrix in="SourceAlpha" type="matrix" values="0 0 0 0 0 0 0 0 0 0 0 0 0 0 0 0 0 0 127 0" result="hardAlpha"/>
<feOffset/>
<feGaussianBlur stdDeviation="3.11918"/>
<feComposite in2="hardAlpha" operator="out"/>
<feColorMatrix type="matrix" values="0 0 0 0 0 0 0 0 0 0 0 0 0 0 0 0 0 0 0.25 0"/>
<feBlend mode="normal" in2="BackgroundImageFix" result="effect1_dropShadow_85_779"/>
<feBlend mode="normal" in="SourceGraphic" in2="effect1_dropShadow_85_779" result="shape"/>
</filter>
<clipPath id="clip0_85_779">
<rect width="35.7847" height="23.8565" fill="white" transform="translate(7 7)"/>
</clipPath>
</defs>
</svg>
