<svg width="30" height="30" viewBox="0 0 30 30" fill="none" xmlns="http://www.w3.org/2000/svg">
<path fill-rule="evenodd" clip-rule="evenodd" d="M25.9774 4.02347C26.0647 4.11056 26.134 4.21401 26.1813 4.32791C26.2285 4.44181 26.2529 4.56391 26.2529 4.68722C26.2529 4.81054 26.2285 4.93264 26.1813 5.04654C26.134 5.16043 26.0647 5.26389 25.9774 5.35097L5.35243 25.976C5.1764 26.152 4.93764 26.2509 4.68868 26.2509C4.43973 26.2509 4.20097 26.152 4.02493 25.976C3.8489 25.7999 3.75 25.5612 3.75 25.3122C3.75 25.0633 3.8489 24.8245 4.02493 24.6485L24.6499 4.02347C24.737 3.93617 24.8405 3.8669 24.9544 3.81964C25.0683 3.77237 25.1904 3.74805 25.3137 3.74805C25.437 3.74805 25.5591 3.77237 25.673 3.81964C25.7869 3.8669 25.8903 3.93617 25.9774 4.02347Z" fill="black"/>
<path fill-rule="evenodd" clip-rule="evenodd" d="M4.02347 4.02347C3.93617 4.11056 3.8669 4.21401 3.81964 4.32791C3.77237 4.44181 3.74805 4.56391 3.74805 4.68722C3.74805 4.81054 3.77237 4.93264 3.81964 5.04654C3.8669 5.16043 3.93617 5.26389 4.02347 5.35097L24.6485 25.976C24.8245 26.152 25.0633 26.2509 25.3122 26.2509C25.5612 26.2509 25.7999 26.152 25.976 25.976C26.152 25.7999 26.2509 25.5612 26.2509 25.3122C26.2509 25.0633 26.152 24.8245 25.976 24.6485L5.35097 4.02347C5.26389 3.93617 5.16043 3.8669 5.04654 3.81964C4.93264 3.77237 4.81054 3.74805 4.68722 3.74805C4.56391 3.74805 4.44181 3.77237 4.32791 3.81964C4.21401 3.8669 4.11056 3.93617 4.02347 4.02347Z" fill="black"/>
</svg>
